# xmcd
#
# Track frame offsets:
#	150
#	8572
#	49823
#	71377
#	100434
#	125182
#	170642
#	180440
#
# Disc length: 2500 seconds
#
# Revision: 1
# Processed by: cddbd v1.5.1PL2 Copyright (c) Steve Scherf et al.
# Submitted via: EasyCDDAExtractor 9.0.0.1
#
DISCID=6809c208
DTITLE=Whitesnake - Cardiff International Arena Wales 02-07-06 Disc 2
DYEAR=2006
DGENRE=Hard Rock
TTITLE0=Band Introduction 
TTITLE1=Ain't No Love In The Heart Of The City
TTITLE2=Give Me All Your Love
TTITLE3=Here I Go Again
TTITLE4=Bad Boys
TTITLE5=Still Of The Night
TTITLE6=Soldier Of Fortune
TTITLE7=We Wish You Well
EXTD=
EXTT0=
EXTT1=
EXTT2=
EXTT3=
EXTT4=
EXTT5=
EXTT6=
EXTT7=
PLAYORDER=
